<svg xmlns="http://www.w3.org/2000/svg" xml:space="preserve" stroke-miterlimit="10" style="fill-rule:nonzero;clip-rule:evenodd;stroke-linecap:round;stroke-linejoin:round" viewBox="0 0 1024 1024"><g fill="#2f79c3"><path d="M708.088 59.397c-7.182 3.16-13.071 9.911-15.226 17.237-3.303 11.06 1.437 21.546 13.646 30.308 14.22 10.198 24.418 19.534 29.733 27.291 10.773 15.657 15.082 37.777 10.773 56.737-1.149 5.458-2.873 13.646-3.878 17.955-2.586 11.491-.862 18.099 6.464 25.28 7.9 8.044 15.512 10.199 25.711 7.182 13.215-3.878 18.816-12.64 23.987-38.208 8.332-40.649.575-77.708-22.12-106.436-6.895-8.762-24.993-25.28-35.335-32.318-12.066-8.188-23.269-9.911-33.755-5.028Z"/><path d="M483.294 92.003c-15.083 1.15-50.418 6.464-65.787 9.911-70.527 15.944-130.567 44.528-185.581 88.051-7.469 6.033-23.7 20.971-35.91 33.18C124.484 294.965 80.1 389.766 70.907 490.457c-2.01 22.695-.862 78.857 2.155 98.823 13.789 91.354 54.582 173.803 120.656 244.042 44.672 47.544 107.442 87.62 171.648 109.74 80.438 27.866 173.659 31.888 256.539 11.204 32.606-8.188 56.593-17.093 86.901-32.032 56.306-28.153 101.122-63.201 141.053-110.745 62.483-74.261 100.116-169.924 103.995-264.87 1.005-26.142-1.149-61.621-5.171-86.039-3.304-18.817-13.215-58.605-15.37-60.759-.718-.718-4.165 1.149-8.331 4.596-8.474 7.038-20.253 14.651-29.015 18.96-3.303 1.724-6.176 3.735-6.176 4.453 0 .862 1.58 7.326 3.591 14.508 9.767 34.904 12.927 92.79 7.325 132.866-11.203 81.155-43.091 150.102-98.823 213.303-54.008 61.334-128.557 103.994-212.011 121.231-59.466 12.353-130.854 8.905-191.039-9.337-22.982-6.894-38.926-13.358-63.488-25.855-60.328-30.451-112.9-76.559-148.953-130.567-13.215-19.966-18.386-29.015-29.015-51.279-30.165-62.627-41.943-127.12-35.91-195.78 6.32-72.968 32.893-140.334 79.719-202.674 14.508-19.391 42.805-48.406 62.339-64.062 47.832-38.208 108.735-67.08 166.621-79.289 35.335-7.469 47.545-8.762 85.465-8.618 32.606 0 37.921.287 58.317 3.878 40.65 7.182 73.256 18.098 107.442 36.197 9.768 5.171 17.955 9.336 18.242 9.336.718 0-1.149-10.772-3.303-18.529-4.74-17.524-17.093-35.91-32.75-48.837-16.949-14.077-45.246-23.413-89.774-29.59-15.944-2.298-73.399-3.878-90.492-2.729Z"/><path d="M860.058 174.308c-8.906 4.022-14.077 12.784-13.933 22.982 0 6.608 1.723 11.635 9.049 28.153 13.789 30.596 17.38 42.661 17.38 57.025 0 19.966-5.027 34.617-16.231 46.683-8.187 8.905-15.082 12.209-54.87 26.285-7.038 2.586-24.562 9.193-38.639 14.795-20.109 7.757-27.147 11.204-31.744 15.657-14.22 13.071-11.204 34.617 5.889 42.804 5.171 2.298 8.475 3.017 12.784 2.298 8.331-1.149 102.702-35.622 116.922-42.804 21.115-10.629 39.932-31.17 49.699-54.152 10.198-24.418 12.927-57.312 6.607-82.592-3.016-12.496-15.225-43.81-23.269-59.754-9.049-18.098-23.701-24.562-39.644-17.38ZM502.685 196.572c-2.298 1.149-5.889 3.447-7.757 5.171-6.894 6.751-7.325 9.768-7.325 57.025 0 40.075.287 44.815 2.729 50.13 7.9 17.523 33.611 17.811 42.804.574 3.304-6.033 3.304-7.038 3.304-50.561 0-48.119-.287-50.13-8.044-57.455-7.469-6.895-17.093-8.762-25.711-4.884ZM413.342 201.743c-15.657 9.48-9.768 34.473 8.187 34.473 10.773 0 20.109-8.618 20.109-18.673-.143-14.507-15.944-23.413-28.296-15.8ZM593.033 200.881c-9.767 4.453-13.645 16.662-8.474 26.717 6.32 12.353 26.573 11.06 32.749-1.867 3.16-6.608 3.017-10.773-.431-16.375-5.171-8.618-15.369-12.353-23.844-8.475ZM334.197 239.951c-7.039 3.591-11.779 10.629-12.641 18.673-.861 7.756.288 10.773 20.253 46.395 12.353 21.977 18.099 28.297 27.148 29.59 9.768 1.58 21.115-4.309 25.137-12.784 5.602-11.347 4.884-13.502-16.088-50.274-9.623-16.805-16.231-26.86-19.391-29.302-6.176-4.74-17.524-5.745-24.418-2.298ZM668.587 240.813c-5.745 3.016-8.187 6.033-21.976 28.153-8.619 13.789-15.37 25.28-14.939 25.711.431.288 9.049 3.591 19.248 7.039l18.386 6.463 12.64-13.358c16.949-17.811 21.115-24.275 21.115-32.462 0-18.673-17.955-30.021-34.474-21.546Z"/><path d="M722.452 279.164c-3.878 1.724-21.69 18.817-53.146 50.561-62.771 63.488-112.9 114.48-140.192 143.064l-22.264 23.126-15.656-15.082c-8.762-8.331-29.015-28.153-45.247-43.953-34.186-33.325-38.926-36.916-49.698-36.916-9.768 0-14.364 1.868-21.115 8.331-8.619 8.475-10.63 21.115-4.884 31.601 1.867 3.591 21.546 23.413 50.848 51.279 33.324 31.6 48.119 46.539 48.693 49.268 2.299 10.486 4.453 14.507 11.922 21.977 10.199 10.054 19.104 13.502 33.037 12.496 21.259-1.58 37.921-18.242 38.065-38.208l.143-7.756 38.639-39.644c21.402-21.977 61.046-62.77 88.481-90.78 69.522-71.388 76.847-79.145 79.433-84.316 4.74-9.049 1.867-23.988-5.746-30.882-7.613-6.895-21.402-8.762-31.313-4.166ZM268.41 283.761c-13.358 3.878-17.811 21.115-7.9 30.595 14.22 13.645 37.921-3.448 29.59-21.115-1.58-3.447-4.453-6.177-8.475-8.187-6.751-3.161-6.751-3.161-13.215-1.293ZM228.335 349.547c-6.607 1.58-10.342 4.022-14.22 9.193-7.182 9.337-6.177 22.695 2.298 30.739 4.884 4.596 42.373 29.589 51.279 34.186 10.773 5.458 27.435 1.149 33.899-8.762 6.32-9.624 3.016-25.137-6.895-32.463-9.049-6.894-53.146-32.749-55.732-32.749-1.293 0-3.303-.287-4.453-.575-1.005-.287-3.734-.143-6.176.431ZM180.36 439.609c-12.497 10.485-5.746 32.175 10.054 32.175 15.801 0 24.994-15.082 16.662-27.435-4.021-6.033-8.618-8.475-16.374-8.475-4.309 0-7.182 1.006-10.342 3.735ZM822.712 445.785c-7.326 3.447-9.624 7.326-8.619 15.082.862 6.608 6.895 13.071 13.502 14.651 6.033 1.58 14.939-2.298 18.817-8.043 5.745-8.475 2.298-18.099-7.9-22.408-6.033-2.586-8.619-2.442-15.8.718ZM178.923 515.306c-6.894 2.155-13.933 9.48-15.944 16.519-3.447 11.347 3.16 23.844 14.795 28.296 5.315 2.011 12.066 2.299 47.114 1.868l41.08-.431 5.889-4.022c6.464-4.166 11.779-12.928 11.779-19.104 0-6.751-5.602-16.231-12.066-20.397l-5.889-3.878-40.937-.287c-26.717-.144-42.661.287-45.821 1.436ZM754.771 515.737c-14.364 6.177-19.679 20.253-12.784 33.755 2.154 4.453 4.74 6.608 10.342 9.337 7.325 3.303 8.331 3.447 44.959 3.447 38.782 0 43.235-.575 51.422-6.176 5.889-4.166 9.911-14.077 8.762-21.259-1.293-7.182-8.044-15.226-15.8-18.673-5.027-2.442-10.055-2.729-43.81-2.585-30.739 0-39.07.43-43.091 2.154ZM182.802 604.793c-10.773 5.746-11.061 24.419-.575 31.313 4.453 2.873 14.077 3.017 19.391.288 11.779-6.177 11.779-24.706.144-31.601-5.028-2.873-13.789-2.873-18.96 0ZM822.999 605.224c-6.751 3.016-9.337 7.613-9.337 16.375 0 7.038 2.729 11.635 8.619 14.651 16.087 8.331 33.755-9.48 24.562-24.562-2.729-4.453-10.629-9.193-15.513-9.193-1.437 0-5.171 1.293-8.331 2.729ZM271.139 644.006c-3.303 1.58-16.662 9.911-29.733 18.673-20.253 13.79-23.988 16.806-26.573 22.121-1.724 3.447-3.016 8.474-3.016 11.204.143 11.634 12.496 23.269 24.705 23.269 7.326 0 20.972-7.038 44.959-23.126 22.695-15.225 25.568-18.96 24.85-31.169-.575-10.342-4.597-16.662-13.359-20.828-7.469-3.591-14.076-3.591-21.833-.144ZM729.634 644.006c-14.364 6.464-19.104 22.121-10.773 35.623 1.436 2.585 6.176 6.894 10.342 9.48 47.257 30.308 46.251 29.733 55.013 29.733 20.684 0 32.463-20.971 20.972-37.202-3.017-4.166-48.981-34.474-58.461-38.352-6.32-2.585-10.199-2.442-17.093.718ZM361.201 728.897c-5.459 2.873-8.475 7.182-24.85 35.191-14.076 24.132-15.8 28.297-14.938 37.059 1.867 20.397 26.142 28.297 39.931 13.071 3.735-4.165 26.861-41.942 32.894-53.864 8.187-15.944-3.017-34.474-20.684-34.33-4.31.144-9.337 1.293-12.353 2.873ZM637.992 729.184c-3.303 2.011-6.463 5.458-8.331 9.48-4.453 9.049-3.16 16.231 5.459 31.457 25.854 45.677 28.871 49.699 38.495 51.566 16.231 3.017 30.307-8.905 29.015-24.562-.431-6.033-2.873-11.491-15.801-33.755-8.474-14.651-16.231-27.579-17.236-28.871-6.608-8.475-21.69-11.06-31.601-5.315ZM268.554 741.393c-14.795 3.735-18.099 24.132-5.315 32.75 6.177 4.166 11.491 4.596 18.53 1.149 9.767-4.596 13.071-15.513 7.612-24.418-4.452-7.326-13.358-11.348-20.827-9.481ZM501.967 741.968c-5.028 2.011-8.475 5.458-11.779 11.778-2.585 5.171-2.729 8.331-2.298 51.136l.431 45.677 4.022 5.314c8.474 11.061 17.667 13.359 30.164 7.613 6.32-2.873 8.331-4.74 10.916-9.911 2.873-6.033 3.017-8.331 3.017-47.975 0-24.131-.575-43.81-1.437-46.826-1.867-6.32-7.469-13.359-13.071-16.232-4.596-2.441-14.651-2.729-19.965-.574ZM740.263 743.979c-4.022 2.154-8.475 10.055-8.475 14.938 0 9.48 8.906 18.817 18.099 18.817 5.602 0 13.215-5.027 16.806-11.204 3.734-6.32 2.298-13.646-4.022-19.966-4.022-4.022-5.746-4.74-11.635-4.74-3.878.144-8.762 1.006-10.773 2.155ZM414.347 826.284c-6.751 3.303-10.342 10.629-9.624 18.96.575 5.027 1.868 7.326 5.889 11.06 11.922 11.06 31.026 2.729 31.026-13.502 0-7.182-4.596-14.507-10.773-17.093-6.463-2.585-10.342-2.585-16.518.575ZM593.033 825.709c-7.325 3.16-10.629 8.762-10.629 17.524 0 6.895.575 8.188 5.028 12.784 4.452 4.309 6.032 5.027 11.922 5.027 4.021 0 8.474-1.149 11.203-2.729 4.74-2.873 9.193-10.773 9.193-16.231 0-5.315-4.884-12.927-10.198-15.8-5.746-3.017-10.342-3.16-16.519-.575Z"/></g></svg>